<?xml version="1.0" standalone="no"?>
<!DOCTYPE svg PUBLIC "-//W3C//DTD SVG 20010904//EN"
 "http://www.w3.org/TR/2001/REC-SVG-20010904/DTD/svg10.dtd">
<svg version="1.0" xmlns="http://www.w3.org/2000/svg"
 width="1536.000000pt" height="672.000000pt" viewBox="0 0 1536.000000 672.000000"
 preserveAspectRatio="xMidYMid meet">
<metadata>
Created by potrace 1.16, written by Peter Selinger 2001-2019
</metadata>
<g transform="translate(0.000000,672.000000) scale(0.100000,-0.100000)"
fill="#000000" stroke="none">
<path d="M3180 5144 c-204 -30 -270 -66 -459 -248 -168 -163 -262 -322 -326
-553 -34 -125 -33 -172 6 -242 71 -125 169 -229 257 -272 67 -33 140 -30 283
11 72 20 127 30 142 26 14 -3 43 -21 66 -40 34 -29 47 -34 75 -29 49 8 80 -25
72 -75 -22 -141 -21 -152 25 -222 57 -87 108 -199 115 -254 5 -32 0 -65 -16
-118 -33 -109 -49 -179 -43 -196 4 -8 6 -26 7 -40 1 -36 18 -37 51 -2 22 23
25 29 11 24 -15 -6 -17 -4 -11 6 6 10 4 12 -10 6 -18 -7 -18 -6 0 14 22 24 26
25 19 5 -10 -24 44 0 82 36 36 35 48 28 59 -34 4 -22 10 -35 14 -30 8 10 51
12 51 2 0 -4 3 -15 6 -23 5 -12 2 -15 -10 -10 -9 3 -16 1 -16 -5 0 -6 5 -11
10 -11 6 0 8 -10 5 -23 -12 -46 97 -134 120 -97 9 15 135 -70 128 -86 -3 -8
-9 -14 -15 -14 -19 0 3 -18 56 -45 31 -16 59 -24 67 -20 8 6 10 4 4 -5 -6 -10
-4 -12 9 -7 10 4 26 2 37 -3 11 -6 19 -7 18 -3 -3 20 2 27 10 14 7 -11 13 -6
24 21 10 24 29 43 58 59 l44 25 0 96 c0 111 0 111 100 179 38 26 71 57 80 75
20 43 19 147 -2 215 -9 30 -17 89 -17 134 -1 119 11 138 208 325 83 78 147
173 175 259 26 79 26 103 2 125 -15 14 -30 16 -82 11 -120 -12 -234 50 -309
167 -57 87 -151 330 -157 403 -6 89 -9 97 -47 142 -27 30 -59 51 -128 81 -88
39 -99 41 -201 43 -112 3 -120 0 -141 -43 -14 -28 -48 -35 -66 -13 -8 10 -30
15 -64 15 -74 0 -120 16 -162 55 l-37 35 5 70 c4 45 1 73 -6 79 -21 17 -81 19
-176 5z m441 -2048 c5 3 9 -4 9 -15 0 -20 -1 -20 -19 -4 -11 9 -17 21 -14 27
4 6 8 6 11 -2 2 -7 8 -10 13 -6z"/>
<path d="M7400 2950 c0 -663 0 -670 20 -670 20 0 20 7 20 670 0 663 0 670 -20
670 -20 0 -20 -7 -20 -670z"/>
<path d="M10280 3546 c0 -75 0 -76 25 -76 26 0 26 1 23 73 -3 66 -5 72 -25 75
-22 3 -23 0 -23 -72z"/>
<path d="M12305 3608 c-3 -7 -4 -308 -3 -668 3 -647 3 -655 23 -655 20 0 20 7
20 665 0 626 -1 665 -18 668 -9 2 -19 -2 -22 -10z"/>
<path d="M5972 3570 c-104 -16 -166 -54 -209 -127 -22 -37 -28 -62 -32 -137
l-6 -91 -57 -3 -58 -3 0 -109 0 -109 53 -3 52 -3 5 -350 5 -350 158 -3 157 -3
0 253 c1 139 2 298 3 353 l2 100 70 5 70 5 0 105 0 105 -70 5 -70 5 -3 41 c-4
60 26 94 84 94 l44 0 0 104 c0 58 -4 107 -8 110 -17 10 -138 14 -190 6z"/>
<path d="M6890 3445 l0 -115 154 0 c178 0 162 -11 165 113 3 125 15 117 -165
117 l-154 0 0 -115z"/>
<path d="M4836 3438 c-8 -29 -36 -127 -61 -218 -25 -91 -48 -172 -51 -180 -4
-10 -11 -4 -25 22 -10 20 -24 40 -30 43 -6 4 -34 -17 -62 -46 -29 -30 -67 -62
-84 -71 l-33 -17 0 -83 c-1 -57 -5 -89 -15 -102 -17 -22 -20 -102 -5 -140 12
-33 46 -41 91 -22 37 15 37 15 80 172 24 86 50 164 57 173 17 21 21 35 -89
-334 -50 -170 -94 -320 -97 -333 l-4 -23 163 3 163 3 30 123 30 122 177 0 176
0 21 -87 c12 -49 27 -105 32 -125 l11 -38 164 0 c90 0 166 3 168 8 3 4 -22 95
-54 202 -33 107 -91 305 -130 440 -97 337 -158 540 -165 551 -3 5 -104 9 -224
9 l-219 0 -15 -52z m244 -195 c0 -10 25 -115 54 -233 30 -118 52 -218 49 -222
-7 -13 -233 -10 -233 3 0 6 23 107 50 224 28 117 50 220 50 229 0 22 30 21 30
-1z"/>
<path d="M9410 3321 l0 -141 -75 0 c-68 0 -75 -2 -75 -20 0 -18 7 -20 63 -20
34 0 67 -4 74 -8 9 -6 13 -104 15 -382 3 -356 4 -377 23 -410 29 -50 76 -71
150 -68 48 2 60 7 63 21 3 14 -4 17 -48 17 -67 0 -114 20 -128 56 -9 21 -12
131 -10 399 l3 370 103 3 c91 2 103 5 100 20 -3 14 -18 17 -105 20 l-102 3 -3
137 c-3 134 -4 137 -25 140 -23 3 -23 3 -23 -137z"/>
<path d="M6712 3207 c-47 -18 -98 -62 -124 -107 -13 -22 -26 -40 -30 -40 -4 0
-8 33 -10 73 l-3 72 -150 0 -150 0 -3 -463 -2 -463 157 3 158 3 5 256 5 256
28 37 c42 55 69 68 155 75 l77 6 0 150 0 150 -40 2 c-22 1 -55 -3 -73 -10z"/>
<path d="M6897 3203 c-4 -3 -7 -213 -7 -465 l0 -458 154 0 c151 0 154 0 160
23 8 29 8 871 0 891 -5 14 -28 16 -153 16 -81 0 -151 -3 -154 -7z"/>
<path d="M7912 3180 c-217 -46 -335 -297 -276 -588 20 -100 57 -176 114 -233
126 -126 352 -128 489 -4 43 39 95 129 87 150 -11 30 -36 14 -63 -41 -72 -148
-257 -203 -413 -124 -103 53 -180 194 -180 332 l0 48 340 0 c265 0 340 3 341
13 14 139 -42 304 -127 374 -79 64 -209 95 -312 73z m208 -62 c111 -47 190
-182 190 -323 l0 -35 -321 0 -322 0 6 58 c11 120 67 225 148 279 80 53 205 62
299 21z"/>
<path d="M8772 3179 c-148 -29 -254 -148 -288 -326 -48 -251 40 -480 214 -561
48 -22 71 -27 147 -27 122 0 183 22 251 89 48 48 100 148 87 169 -13 21 -39 3
-56 -38 -32 -76 -71 -121 -133 -151 -48 -23 -70 -28 -138 -28 -67 0 -91 4
-136 25 -69 33 -112 74 -145 139 -37 74 -55 154 -55 250 1 209 82 358 221 406
72 24 188 22 250 -4 55 -24 123 -98 142 -155 10 -31 20 -43 37 -45 20 -3 22
-1 16 25 -43 176 -214 272 -414 232z"/>
<path d="M10071 3174 c-69 -19 -157 -78 -198 -135 -18 -24 -39 -53 -47 -64
-14 -18 -15 -10 -16 88 0 100 -1 107 -20 107 -20 0 -20 -5 -18 -442 3 -413 4
-443 21 -446 16 -3 17 14 17 240 0 335 20 419 122 521 53 53 116 86 187 96 37
5 46 10 46 26 0 26 -25 28 -94 9z"/>
<path d="M10780 3174 c-125 -34 -216 -133 -255 -280 -21 -78 -21 -259 -1 -337
53 -195 170 -290 361 -291 78 0 98 4 153 29 75 34 133 94 161 169 21 56 19 66
-9 66 -12 0 -22 -12 -31 -37 -44 -136 -180 -211 -330 -183 -180 34 -279 181
-279 415 0 192 76 341 202 395 71 31 203 32 268 3 58 -26 114 -88 137 -152 13
-37 23 -51 37 -51 40 0 0 113 -63 178 -80 82 -218 112 -351 76z"/>
<path d="M11605 3180 c-122 -25 -199 -100 -219 -213 -7 -36 -6 -38 15 -35 16
2 25 14 34 45 22 73 52 110 113 140 50 24 68 28 147 27 72 -1 100 -6 138 -24
86 -41 127 -123 127 -255 l0 -72 -162 -6 c-228 -9 -314 -32 -390 -105 -49 -47
-72 -115 -65 -193 11 -121 86 -197 218 -219 156 -26 303 29 371 138 l23 37 10
-75 c8 -57 14 -76 27 -78 15 -3 16 23 12 330 -3 190 -10 351 -16 376 -36 141
-200 219 -383 182z m349 -530 c-1 -114 -20 -180 -70 -239 -95 -110 -293 -141
-413 -63 -104 67 -117 217 -26 308 69 68 176 93 395 90 l115 -1 -1 -95z"/>
<path d="M10285 3168 c-3 -7 -4 -209 -3 -448 3 -427 3 -435 23 -435 20 0 20 7
20 445 0 416 -1 445 -18 448 -9 2 -19 -2 -22 -10z"/>
<path d="M3545 2429 c12 -38 23 -46 73 -54 57 -8 117 -23 157 -40 38 -16 193
-65 206 -65 6 0 9 12 7 27 -3 25 -9 29 -58 41 -30 7 -86 23 -125 35 -38 12
-74 22 -80 22 -5 0 -12 3 -15 7 -5 6 -86 31 -149 45 -21 5 -22 3 -16 -18z"/>
<path d="M3598 2210 c2 -17 7 -32 11 -35 41 -25 301 -47 301 -26 0 17 -7 20
-210 72 -103 26 -107 25 -102 -11z"/>
<path d="M8047 1933 c-2 -5 -4 -123 -3 -263 1 -234 2 -255 19 -258 16 -3 17
15 17 262 0 225 -2 266 -14 266 -8 0 -17 -3 -19 -7z"/>
<path d="M4591 1893 c-82 -41 -115 -168 -71 -271 13 -30 36 -62 53 -74 41 -30
113 -34 156 -10 34 18 75 78 65 94 -10 16 -35 8 -44 -16 -13 -35 -49 -56 -93
-56 -111 0 -160 189 -72 277 27 27 41 33 75 33 36 0 48 -6 76 -35 18 -19 40
-35 48 -35 21 0 20 8 -3 46 -36 58 -122 80 -190 47z"/>
<path d="M6400 1720 c0 -177 1 -191 18 -188 15 3 17 20 17 188 0 168 -2 185
-17 188 -17 3 -18 -11 -18 -188z"/>
<path d="M6857 1903 c-15 -14 -7 -43 12 -43 26 0 36 17 21 35 -14 16 -23 19
-33 8z"/>
<path d="M8575 1896 c-61 -27 -95 -93 -95 -184 0 -141 108 -227 224 -178 34
14 82 78 71 96 -10 17 -33 11 -40 -10 -10 -32 -54 -60 -95 -60 -70 0 -120 64
-120 155 0 92 50 155 122 155 33 0 47 -7 81 -40 48 -47 71 -40 40 12 -34 60
-119 84 -188 54z"/>
<path d="M11547 1903 c-15 -14 -7 -43 12 -43 23 0 34 23 18 39 -13 13 -21 14
-30 4z"/>
<path d="M6617 1874 c-4 -4 -7 -22 -7 -41 0 -26 -4 -33 -20 -33 -13 0 -20 -7
-20 -20 0 -13 7 -20 20 -20 19 0 20 -7 20 -100 0 -88 3 -103 21 -121 21 -21
60 -23 67 -2 2 7 -8 17 -22 23 -25 9 -26 12 -26 104 0 90 1 95 22 98 33 4 37
38 4 38 -21 0 -25 5 -28 37 -3 35 -17 51 -31 37z"/>
<path d="M10040 1856 c0 -35 -10 -56 -26 -56 -22 0 -16 -37 6 -43 18 -5 20
-14 20 -106 0 -96 1 -101 25 -117 28 -18 67 -11 58 12 -3 7 -14 14 -24 14 -24
0 -31 28 -27 120 3 70 4 75 28 80 30 7 33 33 5 39 -25 4 -35 19 -35 54 0 17
-5 27 -15 27 -9 0 -15 -9 -15 -24z"/>
<path d="M11307 1874 c-4 -4 -7 -22 -7 -40 0 -23 -5 -33 -20 -37 -11 -3 -20
-10 -20 -17 0 -7 9 -14 20 -17 18 -5 20 -14 20 -104 0 -87 3 -102 21 -120 21
-21 60 -23 67 -2 2 7 -8 17 -22 23 -25 9 -26 12 -26 105 0 95 0 95 25 95 18 0
25 5 25 20 0 15 -7 20 -24 20 -21 0 -25 5 -28 37 -3 35 -17 51 -31 37z"/>
<path d="M4974 1766 c-32 -32 -34 -39 -34 -97 0 -46 5 -72 19 -93 71 -107 211
-48 211 89 0 82 -47 135 -121 135 -33 0 -47 -6 -75 -34z m109 -7 c49 -22 63
-108 27 -166 -16 -27 -26 -33 -54 -33 -52 0 -76 31 -76 98 0 61 12 89 43 102
30 12 32 12 60 -1z"/>
<path d="M5330 1665 c0 -107 3 -135 14 -135 10 0 15 25 19 96 4 71 10 101 23
115 20 22 76 26 92 6 6 -7 13 -58 14 -112 3 -88 5 -100 21 -103 18 -4 19 4 15
113 -3 109 -5 118 -27 136 -29 23 -88 25 -113 3 -16 -16 -18 -16 -24 0 -3 9
-12 16 -20 16 -11 0 -14 -26 -14 -135z"/>
<path d="M5722 1783 c-53 -45 -27 -112 51 -132 49 -12 70 -31 65 -58 -8 -44
-99 -46 -113 -2 -8 25 -35 24 -35 -1 0 -38 44 -70 95 -70 58 0 95 32 95 83 0
41 -11 51 -87 81 -61 23 -75 43 -48 70 24 23 58 20 85 -9 28 -30 40 -32 40 -5
0 54 -101 83 -148 43z"/>
<path d="M6037 1793 c-11 -10 -8 -164 3 -205 18 -63 78 -87 130 -51 17 12 25
13 28 5 6 -20 31 -13 37 11 3 12 5 71 3 132 -3 95 -5 110 -20 113 -16 3 -18
-7 -18 -97 0 -114 -13 -141 -69 -141 -49 0 -61 29 -61 142 0 75 -3 98 -13 98
-8 0 -17 -3 -20 -7z"/>
<path d="M7067 1793 c-4 -3 -7 -64 -7 -135 0 -103 3 -128 14 -128 21 0 26 23
26 114 0 92 15 119 65 119 42 0 50 -17 55 -126 4 -87 8 -102 23 -105 15 -3 17
7 17 98 0 105 -13 151 -45 164 -30 11 -78 6 -97 -10 -16 -16 -18 -16 -24 0 -6
17 -16 20 -27 9z"/>
<path d="M7463 1778 c-33 -36 -43 -63 -43 -113 0 -105 71 -161 150 -120 30 15
30 15 30 -14 0 -45 -30 -75 -75 -75 -28 0 -42 6 -53 22 -8 12 -21 22 -28 22
-22 0 -16 -29 11 -55 29 -30 97 -34 134 -9 41 29 51 72 51 218 0 138 -9 169
-36 131 -13 -17 -15 -17 -32 -2 -27 25 -84 22 -109 -5z m90 -19 c44 -20 61
-97 35 -154 -22 -49 -97 -46 -118 5 -18 44 -7 120 20 142 26 21 31 22 63 7z"/>
<path d="M8962 1770 c-36 -35 -47 -75 -37 -136 22 -151 215 -146 226 6 4 73
-1 92 -35 126 -29 29 -41 34 -79 34 -37 0 -51 -6 -75 -30z m131 -32 c11 -14
17 -37 17 -73 0 -67 -26 -105 -74 -105 -50 0 -71 30 -71 102 0 53 3 62 29 85
33 28 70 25 99 -9z"/>
<path d="M9317 1793 c-4 -3 -7 -64 -7 -135 0 -121 1 -128 20 -128 19 0 20 7
20 93 0 111 13 137 65 137 52 0 65 -26 65 -137 0 -88 1 -93 21 -93 20 0 21 4
17 109 -3 100 -5 112 -27 135 -28 30 -83 35 -118 11 -19 -13 -22 -13 -27 0 -6
16 -18 19 -29 8z"/>
<path d="M9713 1785 c-12 -8 -24 -29 -28 -46 -9 -40 17 -68 82 -89 81 -26 86
-82 7 -88 -32 -3 -42 1 -60 24 -24 29 -45 26 -37 -6 20 -75 154 -80 184 -8 21
52 3 79 -71 109 -69 27 -87 52 -54 76 27 19 50 16 80 -12 32 -30 44 -32 44 -6
0 49 -99 80 -147 46z"/>
<path d="M10287 1793 c-4 -3 -7 -64 -7 -135 0 -121 1 -128 20 -128 19 0 20 7
20 90 0 83 2 93 25 115 13 14 31 25 38 25 8 0 17 6 20 14 12 32 -27 35 -59 5
l-22 -21 -7 21 c-6 21 -16 26 -28 14z"/>
<path d="M10560 1688 c0 -101 2 -117 20 -136 29 -31 66 -38 106 -19 19 9 34
12 34 7 0 -6 9 -10 20 -10 20 0 20 5 18 133 -3 109 -6 132 -18 132 -12 0 -16
-20 -20 -101 -3 -64 -10 -107 -19 -118 -16 -19 -74 -21 -89 -3 -6 7 -13 60
-14 117 -3 91 -5 105 -20 108 -16 3 -18 -7 -18 -110z"/>
<path d="M10971 1784 c-13 -9 -29 -32 -37 -50 -40 -96 13 -214 96 -214 45 0
100 44 100 79 0 21 -37 10 -48 -14 -15 -32 -70 -35 -97 -5 -44 48 -24 172 30
186 26 6 75 -17 75 -36 0 -6 9 -10 20 -10 28 0 25 22 -6 54 -32 31 -96 36
-133 10z"/>
<path d="M11547 1794 c-4 -4 -7 -65 -7 -136 0 -122 1 -128 20 -128 20 0 20 5
18 132 -3 122 -10 153 -31 132z"/>
<path d="M11788 1785 c-16 -9 -33 -32 -43 -59 -47 -123 47 -242 151 -193 82
39 95 181 23 241 -35 30 -88 34 -131 11z m99 -30 c31 -22 47 -85 33 -135 -12
-44 -33 -60 -79 -60 -43 0 -66 38 -66 108 0 46 4 57 28 78 33 28 54 30 84 9z"/>
<path d="M12124 1787 c-2 -7 -3 -67 -2 -132 3 -105 5 -120 21 -123 15 -3 17 6
17 88 0 109 14 140 65 140 54 0 65 -23 65 -133 0 -92 1 -97 21 -97 20 0 21 4
17 111 -3 107 -4 112 -31 135 -32 28 -88 32 -107 9 -12 -14 -15 -14 -30 0 -20
18 -29 19 -36 2z"/>
<path d="M6854 1776 c-3 -8 -4 -65 -2 -127 3 -98 6 -114 21 -117 15 -3 17 9
17 127 0 111 -2 131 -15 131 -9 0 -18 -6 -21 -14z"/>
<path d="M14929 503 c-13 -16 -12 -17 4 -4 9 7 17 15 17 17 0 8 -8 3 -21 -13z"/>
</g>
</svg>
